<svg xmlns="http://www.w3.org/2000/svg" viewBox="0 0 640 360" role="img" aria-label="Map showing the location of the Adelaide CBD office">
  <rect width="640" height="360" fill="#eaf0f5"/>
  <g><rect x="12" y="12" width="63" height="54" rx="7" fill="#d7e2ec"/><rect x="91" y="12" width="63" height="54" rx="7" fill="#d7e2ec"/><rect x="170" y="12" width="63" height="54" rx="7" fill="#d7e2ec"/><rect x="249" y="12" width="63" height="54" rx="7" fill="#d7e2ec"/><rect x="328" y="12" width="63" height="54" rx="7" fill="#d7e2ec"/><rect x="407" y="12" width="63" height="54" rx="7" fill="#d7e2ec"/><rect x="486" y="12" width="63" height="54" rx="7" fill="#d7e2ec"/><rect x="565" y="12" width="63" height="54" rx="7" fill="#d7e2ec"/><rect x="12" y="82" width="63" height="54" rx="7" fill="#d7e2ec"/><rect x="91" y="82" width="63" height="54" rx="7" fill="#d7e2ec"/><rect x="170" y="82" width="63" height="54" rx="7" fill="#d7e2ec"/><rect x="249" y="82" width="63" height="54" rx="7" fill="#d7e2ec"/><rect x="328" y="82" width="63" height="54" rx="7" fill="#d7e2ec"/><rect x="407" y="82" width="63" height="54" rx="7" fill="#d7e2ec"/><rect x="486" y="82" width="63" height="54" rx="7" fill="#d7e2ec"/><rect x="565" y="82" width="63" height="54" rx="7" fill="#d7e2ec"/><rect x="12" y="152" width="63" height="54" rx="7" fill="#d7e2ec"/><rect x="91" y="152" width="63" height="54" rx="7" fill="#d7e2ec"/><rect x="170" y="152" width="63" height="54" rx="7" fill="#d7e2ec"/><rect x="249" y="152" width="63" height="54" rx="7" fill="#d7e2ec"/><rect x="328" y="152" width="63" height="54" rx="7" fill="#d7e2ec"/><rect x="407" y="152" width="63" height="54" rx="7" fill="#d7e2ec"/><rect x="486" y="152" width="63" height="54" rx="7" fill="#d7e2ec"/><rect x="565" y="152" width="63" height="54" rx="7" fill="#d7e2ec"/><rect x="12" y="222" width="63" height="54" rx="7" fill="#d7e2ec"/><rect x="91" y="222" width="63" height="54" rx="7" fill="#d7e2ec"/><rect x="170" y="222" width="63" height="54" rx="7" fill="#d7e2ec"/><rect x="249" y="222" width="63" height="54" rx="7" fill="#d7e2ec"/><rect x="328" y="222" width="63" height="54" rx="7" fill="#d7e2ec"/><rect x="407" y="222" width="63" height="54" rx="7" fill="#d7e2ec"/><rect x="486" y="222" width="63" height="54" rx="7" fill="#d7e2ec"/><rect x="565" y="222" width="63" height="54" rx="7" fill="#d7e2ec"/><rect x="12" y="292" width="63" height="54" rx="7" fill="#d7e2ec"/><rect x="91" y="292" width="63" height="54" rx="7" fill="#d7e2ec"/><rect x="170" y="292" width="63" height="54" rx="7" fill="#d7e2ec"/><rect x="249" y="292" width="63" height="54" rx="7" fill="#d7e2ec"/><rect x="328" y="292" width="63" height="54" rx="7" fill="#d7e2ec"/><rect x="407" y="292" width="63" height="54" rx="7" fill="#d7e2ec"/><rect x="486" y="292" width="63" height="54" rx="7" fill="#d7e2ec"/><rect x="565" y="292" width="63" height="54" rx="7" fill="#d7e2ec"/></g>
  <path d="M-20 320 L660 70" stroke="#ffffff" stroke-width="15"/>
  <path d="M-20 320 L660 70" stroke="#f0d9b4" stroke-width="3" stroke-dasharray="2 16"/>
  <ellipse cx="320" cy="30" rx="380" ry="60" fill="#cfe3cf"/><ellipse cx="320" cy="30" rx="380" ry="60" fill="none" stroke="#b6d2b6" stroke-width="2"/><ellipse cx="320" cy="348" rx="380" ry="60" fill="#cfe3cf"/><ellipse cx="320" cy="348" rx="380" ry="60" fill="none" stroke="#b6d2b6" stroke-width="2"/>
  <ellipse cx="320" cy="246" rx="26" ry="7" fill="#13405f" opacity="0.18"/>
  <path d="M320 116c-28 0-50 22-50 50 0 33 50 76 50 76s50-43 50-76c0-28-22-50-50-50z" fill="#134063"/>
  <circle cx="320" cy="166" r="19" fill="#E2A24A"/>
  <circle cx="320" cy="166" r="7.5" fill="#ffffff" opacity="0.9"/>
  <g transform="translate(18,298)">
    <rect width="170" height="38" rx="19" fill="#ffffff" opacity="0.95"/>
    <circle cx="23" cy="19" r="6" fill="#E2A24A"/>
    <text x="40" y="25" font-family="Arial, Helvetica, sans-serif" font-size="17" font-weight="bold" fill="#16243A">Adelaide CBD</text>
  </g>
</svg>
